<?xml version="1.0" standalone="no"?><!DOCTYPE svg PUBLIC "-//W3C//DTD SVG 1.1//EN" "http://www.w3.org/Graphics/SVG/1.1/DTD/svg11.dtd"><svg t="1653061604716" class="icon" viewBox="0 0 1024 1024" version="1.1" xmlns="http://www.w3.org/2000/svg" p-id="1630" xmlns:xlink="http://www.w3.org/1999/xlink" width="200" height="200"><defs><style type="text/css">@font-face { font-family: feedback-iconfont; src: url("//at.alicdn.com/t/font_1031158_u69w8yhxdu.woff2?t=1630033759944") format("woff2"), url("//at.alicdn.com/t/font_1031158_u69w8yhxdu.woff?t=1630033759944") format("woff"), url("//at.alicdn.com/t/font_1031158_u69w8yhxdu.ttf?t=1630033759944") format("truetype"); }
</style></defs><path d="M283.52 211.2S832.64 278.4 931.2 332.8v499.2s-38.72 38.4-59.84 38.4H149.44S89.6 873.6 89.6 790.4l3.2-535.36S106.88 208.64 206.08 211.2h77.44z" fill="#C7E7EF" p-id="1631"></path><path d="M872.64 883.2H151.36C112 883.2 80 848.64 80 806.4V275.2c0-42.24 32-76.8 71.36-76.8h720.96C912 198.4 944 232.96 944 275.2v531.2c0 42.24-32 76.8-71.36 76.8zM151.36 224c-26.24 0-47.68 23.04-47.68 51.2v531.2c0 28.16 21.44 51.2 47.68 51.2h720.96c26.24 0 47.68-23.04 47.68-51.2V275.2c0-28.16-21.44-51.2-47.68-51.2H151.36z" fill="#573733" p-id="1632"></path><path d="M91.84 784c-3.2 0-6.72-1.6-8.96-4.16-4.48-5.44-3.84-13.44 0.96-17.92l211.52-201.6c4.48-4.16 10.88-4.16 15.36-0.32l143.68 124.16 216-222.72c4.8-4.8 12.16-4.8 16.64 0.32l253.12 278.4c4.48 5.12 4.48 13.12-0.32 18.24-4.8 4.8-12.16 4.8-16.96-0.32l-245.12-269.44-215.04 221.76c-4.48 4.48-11.2 4.8-15.68 0.64l-144-124.48L99.84 780.8c-2.24 2.24-5.12 3.2-8 3.2zM268.16 463.36c-44.16 0-80-35.84-80-80s35.84-80 80-80 80 35.84 80 80-36.16 80-80 80z m0-134.4c-30.08 0-54.4 24.32-54.4 54.4s24.32 54.4 54.4 54.4 54.4-24.32 54.4-54.4-24.64-54.4-54.4-54.4z" fill="#573733" p-id="1633"></path></svg>