<?xml version="1.0" standalone="no"?><!DOCTYPE svg PUBLIC "-//W3C//DTD SVG 1.1//EN" "http://www.w3.org/Graphics/SVG/1.1/DTD/svg11.dtd"><svg t="1662773227527" class="icon" viewBox="0 0 1024 1024" version="1.1" xmlns="http://www.w3.org/2000/svg" p-id="5296" xmlns:xlink="http://www.w3.org/1999/xlink" width="200" height="200"><path d="M864 502.464C864 690.592 719.328 865.312 511.808 928 301.312 866.72 160 695.904 160 502.464V225.568c14.912 2.496 30.688 3.744 47.2 3.744 37.312 0 77.792-6.432 120.384-19.072A430.784 430.784 0 0 0 514.112 96c34.528 32.864 99.008 85.408 181.952 113.728 38.816 13.28 77.632 20.064 115.36 20.064 18.304 0 36.352-1.632 52.608-4.704L864 502.464z" fill="#F0F4FF" p-id="5297"></path><path d="M511.808 960c-3.008 0-6.016-0.448-8.928-1.28C278.656 893.44 128 710.08 128 502.464V225.568a31.936 31.936 0 0 1 37.312-31.552c43.424 7.328 96.352 2.4 153.184-14.432a399.84 399.84 0 0 0 172.608-105.76 32 32 0 0 1 45.12-0.96c29.664 28.224 91.232 79.648 170.208 106.624 52.48 17.952 106.816 22.688 151.68 14.176a32 32 0 0 1 37.92 31.456v277.376c-0.032 201.888-154.208 389.44-374.976 456.128a32.352 32.352 0 0 1-9.248 1.376zM192 260.992v241.472c0 176.128 128.032 332.64 319.648 392.064C700.736 833.664 832 673.664 832 502.464l0.032-241.312c-47.744 2.976-96.928-4.256-146.304-21.152-73.376-25.056-132.992-67.904-170.784-100.224a462.528 462.528 0 0 1-178.176 101.088c-51.456 15.328-100.192 22.016-144.768 20.128z" fill="#A3B0FE" p-id="5298"></path><path d="M466.752 634.496a31.904 31.904 0 0 1-22.624-9.376l-90.496-90.496a31.968 31.968 0 1 1 45.248-45.248l67.872 67.872 158.368-158.368a31.968 31.968 0 1 1 45.248 45.248l-180.992 180.992a31.904 31.904 0 0 1-22.624 9.376z" fill="#A3B0FE" p-id="5299"></path></svg>
