<?xml version="1.0" standalone="no"?><!DOCTYPE svg PUBLIC "-//W3C//DTD SVG 1.1//EN" "http://www.w3.org/Graphics/SVG/1.1/DTD/svg11.dtd"><svg t="1663557727754" class="icon" viewBox="0 0 1024 1024" version="1.1" xmlns="http://www.w3.org/2000/svg" p-id="12357" xmlns:xlink="http://www.w3.org/1999/xlink" width="200" height="200"><path d="M510.293714 0.021329q137.121405-1.151743 257.649179 68.550038 132.535761 76.548254 201.107128 212.517915l-423.905416-22.28836q-91.41427-5.140186-167.962523 42.571834t-105.683086 131.106747l-157.682151-242.228619q73.135682-90.838398 177.667025-140.256705t218.809845-49.994178zM83.530269 231.393704l192.533041 378.774153q41.14282 81.68844 120.549102 123.983003t167.386652 25.700932l-131.405347 257.649179q-121.124974-18.85446-219.961588-89.985255t-155.677265-180.525054-56.840651-235.083547q0-152.541964 83.416054-280.51341zM989.610766 327.94816q33.144605 85.698212 33.997748 177.389753t-27.705818 174.808996-87.404498 155.399993-140.533977 119.69596q-131.405347 75.993711-284.501854 67.995495l231.372375-355.909921q50.27145-74.841968 47.136149-165.957637t-60.850423-158.535293zM512 339.380276q71.408067 0 121.978117 50.57005t50.57005 121.978117-50.57005 121.978117-121.978117 50.57005-121.978117-50.57005-50.57005-121.978117 50.57005-121.978117 121.978117-50.57005z" p-id="12358"></path></svg>