<?xml version="1.0" standalone="no"?><!DOCTYPE svg PUBLIC "-//W3C//DTD SVG 1.1//EN" "http://www.w3.org/Graphics/SVG/1.1/DTD/svg11.dtd"><svg t="1663653430902" class="icon" viewBox="0 0 1024 1024" version="1.1" xmlns="http://www.w3.org/2000/svg" p-id="8074" xmlns:xlink="http://www.w3.org/1999/xlink" width="200" height="200"><path d="M590.222222 73.955556L859.022222 342.254933V876.088889c0 37.700267-30.5664 68.266667-68.266666 68.266667H233.244444c-37.700267 0-68.266667-30.5664-68.266666-68.266667V142.222222c0-37.700267 30.5664-68.266667 68.266666-68.266666h356.977778z m-11.764622 28.444444H233.244444a39.822222 39.822222 0 0 0-39.799466 38.456889L193.422222 142.222222v733.866667a39.822222 39.822222 0 0 0 38.456889 39.799467L233.244444 915.911111h557.511112a39.822222 39.822222 0 0 0 39.799466-38.456889L830.577778 876.088889V354.053689L578.4576 102.4z" fill="#69C0FF" p-id="8075"></path><path d="M854.755556 370.648178h-215.1424c-45.528178 0-82.551467-36.431644-83.5072-81.737956l-0.017067-1.792V73.955556h28.444444v213.162666c0 29.895111 23.819378 54.232178 53.515378 55.062756l1.564445 0.022755h215.1424v28.444445z" fill="#69C0FF" p-id="8076"></path><path d="M56.888889 489.244444m28.444444 0l853.333334 0q28.444444 0 28.444444 28.444445l0 284.444444q0 28.444444-28.444444 28.444445l-853.333334 0q-28.444444 0-28.444444-28.444445l0-284.444444q0-28.444444 28.444444-28.444445Z" fill="#69C0FF" p-id="8077"></path><path d="M362.410667 760.832c24.832 0 46.08-9.472 62.208-28.16l-24.064-28.672c-8.96 9.728-20.992 17.408-36.352 17.408-26.88 0-44.288-22.016-44.288-59.904 0-37.12 20.224-59.136 44.8-59.136 13.568 0 23.552 6.144 33.28 14.848l23.808-29.184C408.746667 574.72 388.778667 563.2 363.946667 563.2 315.562667 563.2 273.066667 599.552 273.066667 663.04c0 64.512 40.96 97.792 89.344 97.792zM511.658667 760.832c46.08 0 72.704-27.904 72.704-59.648 0-26.88-14.08-42.752-37.632-52.224l-23.808-9.472c-16.896-6.656-28.672-10.752-28.672-21.504 0-9.984 8.448-15.616 22.528-15.616 14.848 0 26.624 5.12 39.168 14.592l22.784-28.672C562.090667 571.648 538.794667 563.2 516.778667 563.2c-40.448 0-69.12 25.6-69.12 57.6 0 27.648 18.688 44.288 38.656 52.224l24.32 10.24c16.384 6.912 26.88 10.496 26.88 21.504 0 10.24-7.936 16.64-24.832 16.64-15.104 0-32.768-7.936-46.08-19.456l-26.112 31.488c19.712 18.176 46.336 27.392 71.168 27.392zM675.242667 760.832c46.08 0 72.704-27.904 72.704-59.648 0-26.88-14.08-42.752-37.632-52.224l-23.808-9.472c-16.896-6.656-28.672-10.752-28.672-21.504 0-9.984 8.448-15.616 22.528-15.616 14.848 0 26.624 5.12 39.168 14.592l22.784-28.672c-16.64-16.64-39.936-25.088-61.952-25.088-40.448 0-69.12 25.6-69.12 57.6 0 27.648 18.688 44.288 38.656 52.224l24.32 10.24c16.384 6.912 26.88 10.496 26.88 21.504 0 10.24-7.936 16.64-24.832 16.64-15.104 0-32.768-7.936-46.08-19.456l-26.112 31.488c19.712 18.176 46.336 27.392 71.168 27.392z" fill="#FFFFFF" p-id="8078"></path></svg>