<?xml version="1.0" standalone="no"?><!DOCTYPE svg PUBLIC "-//W3C//DTD SVG 1.1//EN" "http://www.w3.org/Graphics/SVG/1.1/DTD/svg11.dtd"><svg t="1668256465532" class="icon" viewBox="0 0 1025 1024" version="1.1" xmlns="http://www.w3.org/2000/svg" p-id="2674" xmlns:xlink="http://www.w3.org/1999/xlink" width="200.1953125" height="200"><path d="M927.544039 772.194112V251.805888a127.859514 127.859514 0 1 0-155.34931-155.34931H251.806506A127.859514 127.859514 0 1 0 96.457196 251.805888v520.388224a127.859514 127.859514 0 1 0 155.34931 155.34931h520.388223a127.859514 127.859514 0 1 0 155.34931-155.34931z m-155.34931 91.419552H251.806506a127.859514 127.859514 0 0 0-91.419553-91.419552V251.805888A127.859514 127.859514 0 0 0 251.806506 160.386336h520.388223a127.859514 127.859514 0 0 0 91.419553 91.419552v520.388224a127.859514 127.859514 0 0 0-91.419553 91.419552zM895.579161 64.4917a63.929757 63.929757 0 1 1-63.929758 63.929757 63.929757 63.929757 0 0 1 63.929758-63.929757zM64.492317 128.421457a63.929757 63.929757 0 1 1 63.929757 63.929757 63.929757 63.929757 0 0 1-63.929757-63.929757z m63.929757 831.086843a63.929757 63.929757 0 1 1 63.929758-63.929757 63.929757 63.929757 0 0 1-63.929758 63.929757z m767.157087 0a63.929757 63.929757 0 1 1 63.929757-63.929757 63.929757 63.929757 0 0 1-63.929757 63.929757z" p-id="2675"></path><path d="M671.82501 320.210728h-319.648786a31.964879 31.964879 0 0 0 0 63.929758h127.859515v287.683907a31.964879 31.964879 0 0 0 63.929757 0V384.140486h127.859514a31.964879 31.964879 0 0 0 0-63.929758z" p-id="2676"></path></svg>