<?xml version="1.0" standalone="no"?><!DOCTYPE svg PUBLIC "-//W3C//DTD SVG 1.1//EN" "http://www.w3.org/Graphics/SVG/1.1/DTD/svg11.dtd"><svg t="1663557832039" class="icon" viewBox="0 0 1024 1024" version="1.1" xmlns="http://www.w3.org/2000/svg" p-id="14946" xmlns:xlink="http://www.w3.org/1999/xlink" width="200" height="200"><path d="M514 114.3c-219.9 0-398.9 178.9-398.9 398.8 0.1 220 179 398.9 398.9 398.9 219.9 0 398.8-178.9 398.8-398.8S733.9 114.3 514 114.3z m218.3 489v1.7c0 0.5-0.1 1-0.1 1.6 0 0.3 0 0.6-0.1 0.9 0 0.5-0.1 1-0.2 1.5 0 0.3-0.1 0.7-0.1 1-0.1 0.4-0.1 0.8-0.2 1.2-0.1 0.4-0.2 0.9-0.2 1.3-0.1 0.3-0.1 0.6-0.2 0.8-0.1 0.6-0.3 1.2-0.4 1.8 0 0.1-0.1 0.2-0.1 0.3-2.2 8.5-6.6 16.6-13.3 23.3L600.7 755.4c-20 20-52.7 20-72.6 0-20-20-20-52.7 0-72.6l28.9-28.9H347c-28.3 0-51.4-23.1-51.4-51.4 0-28.3 23.1-51.4 51.4-51.4h334c13.2 0 26.4 5 36.4 15s15 23.2 15 36.4c0 0.3-0.1 0.6-0.1 0.8z m0.1-179.5c0 28.3-23.1 51.4-51.4 51.4H347c-13.2 0-26.4-5-36.4-15s-15-23.2-15-36.4v-0.8-1.6c0-0.5 0.1-1.1 0.1-1.6 0-0.3 0-0.6 0.1-0.9 0-0.5 0.1-1 0.2-1.5 0-0.3 0.1-0.7 0.1-1 0.1-0.4 0.1-0.8 0.2-1.2 0.1-0.4 0.2-0.9 0.2-1.3 0.1-0.3 0.1-0.6 0.2-0.8 0.1-0.6 0.3-1.2 0.4-1.8 0-0.1 0.1-0.2 0.1-0.3 2.2-8.5 6.6-16.6 13.3-23.3l116.6-116.6c20-20 52.7-20 72.6 0 20 20 20 52.7 0 72.6L471 372.5h210c28.2 0 51.4 23.1 51.4 51.3z" p-id="14947"></path></svg>