<?xml version="1.0" standalone="no"?><!DOCTYPE svg PUBLIC "-//W3C//DTD SVG 1.1//EN" "http://www.w3.org/Graphics/SVG/1.1/DTD/svg11.dtd"><svg t="1663557527201" class="icon" viewBox="0 0 1024 1024" version="1.1" xmlns="http://www.w3.org/2000/svg" p-id="7966" xmlns:xlink="http://www.w3.org/1999/xlink" width="200" height="200"><path d="M512 0C229.216 0 0 71.648 0 160v96l384 384v320c0 35.36 57.312 64 128 64s128-28.64 128-64V640L1024 256V160c0-88.352-229.216-160-512-160zM94.4 138.816c23.936-13.664 57.568-26.624 97.28-37.472C279.616 77.28 393.376 64 512.032 64s232.384 13.248 320.352 37.344c39.712 10.88 73.344 23.84 97.28 37.472 15.808 8.992 24.32 16.608 28.288 21.184-3.968 4.544-12.512 12.16-28.288 21.184-23.936 13.664-57.6 26.624-97.28 37.472C744.448 242.72 630.688 256 512.032 256S279.648 242.752 191.68 218.656c-39.68-10.88-73.344-23.84-97.28-37.472-15.808-9.024-24.32-16.608-28.288-21.184 3.968-4.544 12.512-12.16 28.288-21.184z" p-id="7967"></path></svg>