<?xml version="1.0" standalone="no"?><!DOCTYPE svg PUBLIC "-//W3C//DTD SVG 1.1//EN" "http://www.w3.org/Graphics/SVG/1.1/DTD/svg11.dtd"><svg t="1663593743095" class="icon" viewBox="0 0 1024 1024" version="1.1" xmlns="http://www.w3.org/2000/svg" p-id="6358" xmlns:xlink="http://www.w3.org/1999/xlink" width="200" height="200"><path d="M517.148765 896.531863C304.405453 899.363352 129.623731 729.173205 126.770753 516.496407c-2.823302-212.742289 167.322843-387.55778 380.065132-390.391315 212.745359-2.832512 387.53629 167.357636 390.392338 380.035456C900.037199 718.884884 729.870588 893.699352 517.148765 896.531863zM511.903298 737.957265c25.028023 0 45.298695-20.312628 45.298695-45.319162 0-25.047466-20.270672-45.319162-45.298695-45.319162s-45.340651 20.272719-45.340651 45.319162C466.562647 717.644637 486.875275 737.957265 511.903298 737.957265zM511.903298 262.10658c-84.330664 0-152.618956 45.187155-157.653623 126.663818-0.63138 3.009544-0.963954 6.107091-0.963954 9.293667 0 25.00551 20.291139 45.319162 45.319162 45.319162 25.028023 0 45.298695-20.313651 45.298695-45.319162 0-37.552268 30.448476-67.978231 67.99972-67.978231 37.529755 0 67.956741 30.425963 67.956741 67.978231 2.145873 47.443545-45.095058 68.664869-67.956741 90.638323-53.263088 44.478004-45.340651 68.069305-45.340651 67.980277 0 25.004487 20.312628 45.319162 45.340651 45.319162 24.852014 0 44.988634-20.050662 45.25367-44.834114 26.155706-35.759435 67.62519-67.358107 68.044746-68.464301 43.194778-36.114522 45.318138-90.638323 45.318138-90.638323C670.519852 310.435285 599.511611 262.10658 511.903298 262.10658z" p-id="6359"></path></svg>