<?xml version="1.0" standalone="no"?><!DOCTYPE svg PUBLIC "-//W3C//DTD SVG 1.1//EN" "http://www.w3.org/Graphics/SVG/1.1/DTD/svg11.dtd"><svg t="1662739631521" class="icon" viewBox="0 0 1024 1024" version="1.1" xmlns="http://www.w3.org/2000/svg" p-id="2420" xmlns:xlink="http://www.w3.org/1999/xlink" width="200" height="200"><path d="M923.136 267.605333v701.952H193.024v-909.653333h521.216z" fill="#7CCDFF" p-id="2421"></path><path d="M912.896 253.952l2.56 671.914667c0 15.530667-12.458667 27.989333-27.989333 27.989333H237.909333c-15.530667 0-27.989333-12.458667-27.989333-27.989333V96.938667c0-15.530667 12.458667-27.989333 27.989333-27.989334l493.397334-1.024-38.912-39.936H239.274667c-36.352 0-65.706667 29.354667-65.706667 65.706667v835.584c0 36.352 29.354667 65.706667 65.706667 65.706667h646.826666c36.352 0 65.706667-29.354667 65.706667-65.706667V293.888l-38.912-39.936z" fill="#4191FB" p-id="2422"></path><path d="M692.394667 222.72c0 39.424 31.914667 71.338667 71.338666 71.338667h188.245334L692.394667 27.989333v194.730667z" fill="#C7E2FF" p-id="2423"></path><path d="M557.568 482.304H158.72c-50.346667 0-91.136-40.789333-91.136-91.136v-60.245333c0-50.346667 40.789333-91.136 91.136-91.136h398.848c50.346667 0 91.136 40.789333 91.136 91.136v60.245333c0 50.346667-40.789333 91.136-91.136 91.136z" fill="#4191FB" p-id="2424"></path><path d="M130.56 287.573333h33.450667v54.442667h36.522666v-54.442667h33.621334v155.818667h-33.621334v-62.976H164.010667v62.976H130.56v-155.818667zM248.661333 287.573333h101.546667V325.973333h-34.133333v117.248h-33.450667V325.973333h-34.133333v-38.4h0.170666zM364.885333 287.573333h43.861334l16.896 94.72 16.896-94.72H486.4v155.818667h-27.306667v-118.784l-20.992 118.784h-24.746666l-20.992-118.784v118.784h-27.306667v-155.818667h-0.170667zM507.733333 287.573333h33.450667v117.418667h52.053333v38.4h-85.504v-155.818667z" fill="#FFFFFF" p-id="2425"></path><path d="M472.917333 610.816L358.4 725.333333c-6.997333 6.997333-18.090667 6.997333-25.088 0l-2.218667-2.218666c-6.997333-6.997333-6.997333-18.090667 0-25.088l114.517334-114.517334c6.997333-6.997333 18.090667-6.997333 25.088 0l2.218666 2.218667c6.997333 6.826667 6.997333 18.090667 0 25.088zM619.861333 602.282667l-83.968 230.4c-3.413333 9.216-13.482667 13.994667-22.698666 10.581333l-3.072-1.194667c-9.216-3.413333-13.994667-13.482667-10.581334-22.698666l83.968-230.4c3.413333-9.216 13.482667-13.994667 22.698667-10.581334l3.072 1.194667c9.216 3.242667 13.824 13.482667 10.581333 22.698667z" fill="#4191FB" p-id="2426"></path><path d="M358.4 695.978667l114.517333 114.517333c6.997333 6.997333 6.997333 18.090667 0 25.088l-2.218666 2.218667c-6.997333 6.997333-18.090667 6.997333-25.088 0L331.093333 723.285333c-6.997333-6.997333-6.997333-18.090667 0-25.088l2.218667-2.218666c6.997333-6.997333 18.261333-6.997333 25.088 0zM648.362667 810.496l114.517333-114.517333c6.997333-6.997333 18.090667-6.997333 25.088 0l2.218667 2.218666c6.997333 6.997333 6.997333 18.090667 0 25.088l-114.517334 114.517334c-6.997333 6.997333-18.090667 6.997333-25.088 0l-2.218666-2.218667c-6.997333-6.997333-6.997333-18.261333 0-25.088z" fill="#4191FB" p-id="2427"></path><path d="M762.88 725.333333l-114.517333-114.517333c-6.997333-6.997333-6.997333-18.090667 0-25.088l2.218666-2.218667c6.997333-6.997333 18.090667-6.997333 25.088 0L790.186667 698.026667c6.997333 6.997333 6.997333 18.090667 0 25.088l-2.218667 2.218666c-6.997333 6.826667-18.261333 6.826667-25.088 0z" fill="#4191FB" p-id="2428"></path></svg>
