<?xml version="1.0" standalone="no"?><!DOCTYPE svg PUBLIC "-//W3C//DTD SVG 1.1//EN" "http://www.w3.org/Graphics/SVG/1.1/DTD/svg11.dtd"><svg t="1663653471015" class="icon" viewBox="0 0 1024 1024" version="1.1" xmlns="http://www.w3.org/2000/svg" p-id="9003" xmlns:xlink="http://www.w3.org/1999/xlink" width="200" height="200"><path d="M414.016 705.984c-47.552 0-121.984-188.032-158.016-112-14.976 31.616-39.936 99.008-64 152.96V768a64 64 0 0 0 64 64h512c35.392 0 64-28.608 64-64v-29.824c-36.16-81.408-83.008-216.32-128-268.16-92.032-105.984-201.984 235.968-289.984 235.968zM832 0H192a192 192 0 0 0-192 192v640c0 105.984 85.952 192 192 192h640c105.984 0 192-86.016 192-192V192c0-106.048-86.016-192-192-192z m64 832c0 35.392-28.608 64-64 64H192a64 64 0 0 1-64-64V192c0-35.328 28.672-64 64-64h640a64 64 0 0 1 64 64v640zM288 384c53.056 0 96-42.944 96-96S341.056 192 288 192 192 234.944 192 288s42.944 96 96 96z" fill="" p-id="9004"></path></svg>