<?xml version="1.0" standalone="no"?><!DOCTYPE svg PUBLIC "-//W3C//DTD SVG 1.1//EN" "http://www.w3.org/Graphics/SVG/1.1/DTD/svg11.dtd"><svg t="1673251885709" class="icon" viewBox="0 0 1024 1024" version="1.1" xmlns="http://www.w3.org/2000/svg" p-id="6783" xmlns:xlink="http://www.w3.org/1999/xlink" width="200" height="200"><path d="M801.649 418.816h-31.944V263.752h-0.005c-0.123-119.47-115.43-216.443-257.813-216.443-142.249 0-257.607 97.075-257.607 216.637v154.87H221.92c-53.37 0-96.655 41.6-96.655 93.082V883.82c0 51.271 43.284 92.871 96.655 92.871h580.147c53.592 0 96.666-41.6 96.666-92.871V511.898c-0.22-51.482-43.924-93.082-97.085-93.082zM559.8 761.938v42.24c0 26.69-21.652 48.113-48.537 48.113a47.974 47.974 0 0 1-48.118-48.113v-42.24c-38.031-17.229-64.717-54.21-64.717-96.65 0-59.26 50.642-107.167 112.835-107.167s112.63 47.898 112.63 107.167c0.42 42.444-26.061 79.421-64.093 96.65zM366.694 418.816V263.951c0-51.271 64.932-108.21 144.983-108.21 80.062 0 144.983 56.944 144.983 108.21v154.865H366.694z" p-id="6784"></path></svg>