<?xml version="1.0" standalone="no"?><!DOCTYPE svg PUBLIC "-//W3C//DTD SVG 1.1//EN" "http://www.w3.org/Graphics/SVG/1.1/DTD/svg11.dtd"><svg t="1663566706676" class="icon" viewBox="0 0 1024 1024" version="1.1" xmlns="http://www.w3.org/2000/svg" p-id="4416" xmlns:xlink="http://www.w3.org/1999/xlink" width="200" height="200"><path d="M992 528c0 273.9-222.1 496-496 496S0 801.9 0 528 222.1 32 496 32c86.2 0 167.3 22 238 60.7 2.3 1.3 2.8 4.4 0.9 6.3l-37 37.3-4.2 4.3c-1.2 1.2-3.1 1.5-4.6 0.8-8.2-4.1-16.5-7.9-24.9-11.5C610.9 107.4 554.3 96 496 96s-114.9 11.4-168.1 33.9c-51.4 21.8-97.7 52.9-137.3 92.6-39.7 39.7-70.9 85.9-92.6 137.3C75.4 413.1 64 469.6 64 528c0 58.3 11.4 114.9 33.9 168.1 21.8 51.4 52.9 97.6 92.6 137.3 39.7 39.7 85.9 70.9 137.3 92.6 53.3 22.6 109.9 34 168.2 34s114.9-11.4 168.1-33.9c51.4-21.8 97.7-52.9 137.3-92.6 39.7-39.7 70.9-85.9 92.6-137.3 22.6-53.3 34-109.9 34-168.2 0-58.4-11.4-114.9-33.9-168.1-3.6-8.5-7.4-16.8-11.5-25-0.8-1.5-0.5-3.4 0.8-4.6l4.3-4.2 37.3-37c1.9-1.9 5-1.4 6.3 0.9C970 360.6 992 441.7 992 528z" p-id="4417"></path><path d="M781.4 397c-3.7-8-11.7-13.1-20.6-13.1H740c-6 0-11.8 2.4-16 6.6-7 7-8.6 17.6-4.1 26.4 2.6 5.1 5 10.3 7.3 15.7 13.2 31.2 19.9 64.3 19.9 98.5s-6.7 67.3-19.9 98.5c-12.7 30.1-31 57.2-54.2 80.4-23.3 23.3-50.3 41.5-80.4 54.2-31.3 13.1-64.4 19.8-98.6 19.8s-67.3-6.7-98.5-19.9c-30.1-12.7-57.2-31-80.4-54.2-23.3-23.3-41.5-50.3-54.2-80.4-13.2-31.2-19.9-64.3-19.9-98.5s6.7-67.3 19.9-98.5c12.7-30.1 31-57.2 54.2-80.4 23.3-23.3 50.3-41.5 80.4-54.2 31.2-13.2 64.3-19.9 98.5-19.9s67.3 6.7 98.5 19.9c4.9 2.1 9.8 4.3 14.6 6.7 8.8 4.4 19.4 2.6 26.3-4.4 4.3-4.3 6.7-10.1 6.7-16.2v-20.2c0-9-5.2-17.1-13.4-20.8-40.4-18.6-85.3-29-132.6-29-175.5 0-318 143.4-317 318.9C178 707.1 319.6 848 494 848c174.8 0 316.6-141.3 317-316.2 0.1-48.2-10.5-93.9-29.6-134.8z" p-id="4418"></path><path d="M634.5 488.5c-0.8-2.9-4.5-3.9-6.7-1.7l-34.7 34.7-1.8 1.8c-9 9-15.7 20.1-20.1 32.1-11.5 31.6-42.4 54-78.3 52.7-41.6-1.6-75.3-35.3-76.9-76.9-1.4-35.9 21-66.8 52.7-78.3 12-4.4 23-11.1 32.1-20.1l1.8-1.8 34.7-34.7c2.2-2.2 1.2-5.8-1.7-6.7-12.9-3.7-26.5-5.6-40.6-5.5-79.4 0.5-143 64.5-143 143.9 0 79.5 64.5 144 144 144 79.4 0 143.4-63.6 144-142.9 0.1-14.1-1.8-27.8-5.5-40.6z" p-id="4419"></path><path d="M1017.1 152.8L911.6 257.2l-46.5 46.1-44.3 43.9c-3 3-7 4.6-11.3 4.6H724c-4.2 0-8.3 1.7-11.3 4.7l-19 19-123.2 123.3-51.8 51.9c-6.3 6.3-14.4 9.4-22.6 9.4s-16.4-3.1-22.6-9.4c-12.5-12.5-12.5-32.8 0-45.3l51.8-51.9 47.4-47.4 94.7-94.7c3-3 4.7-7.1 4.7-11.3v-85.5c0-4.2 1.7-8.3 4.6-11.3l44-44.4 46.1-46.5L871.2 6.9c0.8-0.8 1.8-1.2 2.8-1.2 2.1 0 4 1.6 4 4v132.2c0 2.2 1.8 4 4 4h132.2c3.6 0.1 5.4 4.4 2.9 6.9z" p-id="4420"></path></svg>