<?xml version="1.0" standalone="no"?><!DOCTYPE svg PUBLIC "-//W3C//DTD SVG 1.1//EN" "http://www.w3.org/Graphics/SVG/1.1/DTD/svg11.dtd"><svg t="1673235752032" class="icon" viewBox="0 0 1024 1024" version="1.1" xmlns="http://www.w3.org/2000/svg" p-id="2715" xmlns:xlink="http://www.w3.org/1999/xlink" width="200" height="200" transform="rotate(180)"><path d="M511.968 32c-265.056 0-480 214.88-480 480 0 265.088 214.944 480 480 480 265.12 0 480.064-214.912 480.064-480C992 246.88 777.088 32 511.968 32z m0 896c-229.344 0-416-186.592-416-416 0-229.376 186.656-416.032 416-416.032s416 186.656 416 416.032c0 229.408-186.656 416-416 416z m22.784-584.096a31.968 31.968 0 0 0-45.248 0l-226.528 226.944a31.968 31.968 0 1 0 45.248 45.248l204.096-204.064 203.424 203.392a31.968 31.968 0 1 0 45.248-45.248l-226.24-226.272z" p-id="2716"></path></svg>
