<?xml version="1.0" standalone="no"?><!DOCTYPE svg PUBLIC "-//W3C//DTD SVG 1.1//EN" "http://www.w3.org/Graphics/SVG/1.1/DTD/svg11.dtd"><svg t="1663557402286" class="icon" viewBox="0 0 1024 1024" version="1.1" xmlns="http://www.w3.org/2000/svg" p-id="5152" xmlns:xlink="http://www.w3.org/1999/xlink" width="200" height="200"><path d="M515.674692 636.784005c43.485771 0 78.723645-33.797948 78.723645-75.463652L594.398337 75.50845C594.397057 33.797948 559.160463 0 515.674692 0s-78.723645 33.797948-78.723645 75.50845l0 485.810622C436.951046 602.986057 472.18764 636.784005 515.674692 636.784005z" p-id="5153"></path><path d="M836.09091 214.232861c-32.420738-27.756657-82.188428-25.064955-111.132864 6.064329-28.939317 31.096006-26.100422 78.814521 6.336955 106.571178 67.077522 57.56633 109.045291 140.413924 109.07345 233.376839-0.307184 172.715628-146.017477 312.470386-326.088888 312.748132-180.066292-0.279026-325.798343-140.032503-326.083768-312.748132 0.023039-93.400653 42.382468-176.550312 109.995003-234.1384 32.552572-27.631224 35.543778-75.366377 6.729895-106.54174-28.843322-31.20992-78.563654-34.098732-111.093186-6.44575l-0.023039-0.039678C94.011822 297.780579 30.716506 422.260599 30.744664 560.245207 30.790742 816.406159 247.21357 1023.960322 514.280843 1024c267.060873-0.039678 483.484981-207.595121 483.524659-463.754793C997.832381 422.857049 935.134794 298.862123 836.09091 214.232861z" p-id="5154"></path></svg>