<?xml version="1.0" standalone="no"?><!DOCTYPE svg PUBLIC "-//W3C//DTD SVG 1.1//EN" "http://www.w3.org/Graphics/SVG/1.1/DTD/svg11.dtd"><svg t="1672474988499" class="icon" viewBox="0 0 1024 1024" version="1.1" xmlns="http://www.w3.org/2000/svg" p-id="3576" xmlns:xlink="http://www.w3.org/1999/xlink" width="200" height="200"><path d="M512 64C264.96 64 64 264.96 64 512s200.96 448 448 448 448-200.96 448-448S759.04 64 512 64zM566.368 647.616c12.48 12.512 12.448 32.768-0.064 45.248-6.24 6.208-14.4 9.344-22.592 9.344-8.192 0-16.416-3.136-22.656-9.408l-158.912-159.36c-0.032-0.032-0.032-0.064-0.064-0.096s-0.064-0.032-0.096-0.064c-2.496-2.528-4.128-5.504-5.6-8.544-0.32-0.672-0.992-1.216-1.28-1.92-4.704-11.616-2.336-25.408 7.136-34.784l160.256-158.496c12.576-12.448 32.832-12.32 45.248 0.256 12.448 12.576 12.32 32.832-0.256 45.248l-137.408 135.904L566.368 647.616z" fill="currentColor" p-id="3577"></path></svg>