<?xml version="1.0" standalone="no"?><!DOCTYPE svg PUBLIC "-//W3C//DTD SVG 1.1//EN" "http://www.w3.org/Graphics/SVG/1.1/DTD/svg11.dtd"><svg t="1673251858009" class="icon" viewBox="0 0 1024 1024" version="1.1" xmlns="http://www.w3.org/2000/svg" p-id="6634" xmlns:xlink="http://www.w3.org/1999/xlink" width="200" height="200"><path d="M801.649 418.816H366.694V263.951c0-51.271 64.932-108.21 144.983-108.21 80.062 0 144.983 56.944 144.983 108.21v46.434h0.63c3.994 26.265 27.525 46.438 55.895 46.438 28.575 0 52.112-20.173 55.89-46.438h0.63v-46.439c0-119.562-115.354-216.637-257.818-216.637-142.249 0-257.607 97.075-257.607 216.637v154.87H221.92c-53.37 0-96.655 41.6-96.655 93.082V883.82c0 51.271 43.284 92.871 96.655 92.871h580.153c53.586 0 96.66-41.6 96.66-92.871V511.898c-0.22-51.482-43.924-93.082-97.085-93.082zM559.8 761.938v42.24c0 26.69-21.647 48.118-48.537 48.118a47.974 47.974 0 0 1-48.118-48.118v-42.24c-38.031-17.229-64.717-54.21-64.717-96.65 0-59.26 50.642-107.162 112.835-107.162s112.624 47.898 112.624 107.162c0.42 42.444-26.055 79.421-64.087 96.65z" p-id="6635"></path></svg>