<?xml version="1.0" standalone="no"?><!DOCTYPE svg PUBLIC "-//W3C//DTD SVG 1.1//EN" "http://www.w3.org/Graphics/SVG/1.1/DTD/svg11.dtd"><svg t="1634953866305" class="icon" viewBox="0 0 1024 1024" version="1.1" xmlns="http://www.w3.org/2000/svg" p-id="1765" xmlns:xlink="http://www.w3.org/1999/xlink" width="64" height="64"><defs><style type="text/css"></style></defs><path d="M945.230769 393.846154h78.769231v78.769231h-78.769231zM945.230769 315.076923h78.769231v78.769231h-78.769231zM866.461538 472.615385h78.769231v78.76923h-78.769231z" fill="#1E2028" p-id="1766"></path><path d="M866.461538 393.846154h78.769231v78.769231h-78.769231zM866.461538 315.076923h78.769231v78.769231h-78.769231z" fill="#38B269" p-id="1767"></path><path d="M866.461538 236.307692h78.769231v78.769231h-78.769231zM787.692308 551.384615h78.76923v78.769231h-78.76923z" fill="#1E2028" p-id="1768"></path><path d="M787.692308 472.615385h78.76923v78.76923h-78.76923z" fill="#38B269" p-id="1769"></path><path d="M787.692308 393.846154h78.76923v78.769231h-78.76923z" fill="#1E2028" p-id="1770"></path><path d="M787.692308 315.076923h78.76923v78.769231h-78.76923z" fill="#60EF9A" p-id="1771"></path><path d="M787.692308 236.307692h78.76923v78.769231h-78.76923z" fill="#38B269" p-id="1772"></path><path d="M787.692308 157.538462h78.76923v78.76923h-78.76923zM708.923077 630.153846h78.769231v78.769231h-78.769231z" fill="#1E2028" p-id="1773"></path><path d="M708.923077 551.384615h78.769231v78.769231h-78.769231z" fill="#38B269" p-id="1774"></path><path d="M708.923077 472.615385h78.769231v78.76923h-78.769231z" fill="#60EF9A" p-id="1775"></path><path d="M708.923077 393.846154h78.769231v78.769231h-78.769231z" fill="#1E2028" p-id="1776"></path><path d="M708.923077 315.076923h78.769231v78.769231h-78.769231zM708.923077 236.307692h78.769231v78.769231h-78.769231z" fill="#60EF9A" p-id="1777"></path><path d="M708.923077 157.538462h78.769231v78.76923h-78.769231z" fill="#38B269" p-id="1778"></path><path d="M708.923077 78.769231h78.769231v78.769231h-78.769231zM630.153846 708.923077h78.769231v78.769231h-78.769231z" fill="#1E2028" p-id="1779"></path><path d="M630.153846 630.153846h78.769231v78.769231h-78.769231z" fill="#38B269" p-id="1780"></path><path d="M630.153846 551.384615h78.769231v78.769231h-78.769231zM630.153846 472.615385h78.769231v78.76923h-78.769231z" fill="#60EF9A" p-id="1781"></path><path d="M630.153846 393.846154h78.769231v78.769231h-78.769231z" fill="#1E2028" p-id="1782"></path><path d="M630.153846 315.076923h78.769231v78.769231h-78.769231z" fill="#60EF9A" p-id="1783"></path><path d="M630.153846 236.307692h78.769231v78.769231h-78.769231z" fill="#1E2028" p-id="1784"></path><path d="M630.153846 157.538462h78.769231v78.76923h-78.769231z" fill="#60EF9A" p-id="1785"></path><path d="M630.153846 78.769231h78.769231v78.769231h-78.769231zM551.384615 787.692308h78.769231v78.76923h-78.769231z" fill="#1E2028" p-id="1786"></path><path d="M551.384615 708.923077h78.769231v78.769231h-78.769231z" fill="#38B269" p-id="1787"></path><path d="M551.384615 630.153846h78.769231v78.769231h-78.769231zM551.384615 551.384615h78.769231v78.769231h-78.769231zM551.384615 472.615385h78.769231v78.76923h-78.769231z" fill="#60EF9A" p-id="1788"></path><path d="M551.384615 393.846154h78.769231v78.769231h-78.769231zM551.384615 315.076923h78.769231v78.769231h-78.769231z" fill="#1E2028" p-id="1789"></path><path d="M551.384615 236.307692h78.769231v78.769231h-78.769231zM551.384615 157.538462h78.769231v78.76923h-78.769231z" fill="#60EF9A" p-id="1790"></path><path d="M551.384615 78.769231h78.769231v78.769231h-78.769231zM472.615385 866.461538h78.76923v78.769231h-78.76923z" fill="#1E2028" p-id="1791"></path><path d="M472.615385 787.692308h78.76923v78.76923h-78.76923z" fill="#38B269" p-id="1792"></path><path d="M472.615385 708.923077h78.76923v78.769231h-78.76923zM472.615385 630.153846h78.76923v78.769231h-78.76923zM472.615385 551.384615h78.76923v78.769231h-78.76923zM472.615385 472.615385h78.76923v78.76923h-78.76923zM472.615385 393.846154h78.76923v78.769231h-78.76923z" fill="#1E2028" p-id="1793"></path><path d="M472.615385 315.076923h78.76923v78.769231h-78.76923zM472.615385 236.307692h78.76923v78.769231h-78.76923zM472.615385 157.538462h78.76923v78.76923h-78.76923z" fill="#60EF9A" p-id="1794"></path><path d="M472.615385 78.769231h78.76923v78.769231h-78.76923zM393.846154 787.692308h78.769231v78.76923h-78.769231z" fill="#1E2028" p-id="1795"></path><path d="M393.846154 708.923077h78.769231v78.769231h-78.769231z" fill="#AAF2C7" p-id="1796"></path><path d="M393.846154 630.153846h78.769231v78.769231h-78.769231zM393.846154 551.384615h78.769231v78.769231h-78.769231zM393.846154 472.615385h78.769231v78.76923h-78.769231z" fill="#60EF9A" p-id="1797"></path><path d="M393.846154 393.846154h78.769231v78.769231h-78.769231zM393.846154 315.076923h78.769231v78.769231h-78.769231z" fill="#1E2028" p-id="1798"></path><path d="M393.846154 236.307692h78.769231v78.769231h-78.769231zM393.846154 157.538462h78.769231v78.76923h-78.769231z" fill="#60EF9A" p-id="1799"></path><path d="M393.846154 78.769231h78.769231v78.769231h-78.769231zM315.076923 708.923077h78.769231v78.769231h-78.769231z" fill="#1E2028" p-id="1800"></path><path d="M315.076923 630.153846h78.769231v78.769231h-78.769231z" fill="#AAF2C7" p-id="1801"></path><path d="M315.076923 551.384615h78.769231v78.769231h-78.769231zM315.076923 472.615385h78.769231v78.76923h-78.769231z" fill="#60EF9A" p-id="1802"></path><path d="M315.076923 393.846154h78.769231v78.769231h-78.769231z" fill="#1E2028" p-id="1803"></path><path d="M315.076923 315.076923h78.769231v78.769231h-78.769231z" fill="#60EF9A" p-id="1804"></path><path d="M315.076923 236.307692h78.769231v78.769231h-78.769231z" fill="#1E2028" p-id="1805"></path><path d="M315.076923 157.538462h78.769231v78.76923h-78.769231z" fill="#60EF9A" p-id="1806"></path><path d="M315.076923 78.769231h78.769231v78.769231h-78.769231zM236.307692 630.153846h78.769231v78.769231h-78.769231z" fill="#1E2028" p-id="1807"></path><path d="M236.307692 551.384615h78.769231v78.769231h-78.769231z" fill="#AAF2C7" p-id="1808"></path><path d="M236.307692 472.615385h78.769231v78.76923h-78.769231z" fill="#60EF9A" p-id="1809"></path><path d="M236.307692 393.846154h78.769231v78.769231h-78.769231z" fill="#1E2028" p-id="1810"></path><path d="M236.307692 315.076923h78.769231v78.769231h-78.769231z" fill="#60EF9A" p-id="1811"></path><path d="M236.307692 236.307692h78.769231v78.769231h-78.769231z" fill="#FFFFFF" p-id="1812"></path><path d="M236.307692 157.538462h78.769231v78.76923h-78.769231z" fill="#AAF2C7" p-id="1813"></path><path d="M236.307692 78.769231h78.769231v78.769231h-78.769231zM157.538462 551.384615h78.76923v78.769231H157.538462z" fill="#1E2028" p-id="1814"></path><path d="M157.538462 472.615385h78.76923v78.76923H157.538462z" fill="#AAF2C7" p-id="1815"></path><path d="M157.538462 393.846154h78.76923v78.769231H157.538462z" fill="#1E2028" p-id="1816"></path><path d="M157.538462 315.076923h78.76923v78.769231H157.538462z" fill="#FFFFFF" p-id="1817"></path><path d="M157.538462 236.307692h78.76923v78.769231H157.538462z" fill="#AAF2C7" p-id="1818"></path><path d="M157.538462 157.538462h78.76923v78.76923H157.538462zM78.769231 472.615385h78.769231v78.76923H78.769231z" fill="#1E2028" p-id="1819"></path><path d="M78.769231 393.846154h78.769231v78.769231H78.769231zM78.769231 315.076923h78.769231v78.769231H78.769231z" fill="#AAF2C7" p-id="1820"></path><path d="M78.769231 236.307692h78.769231v78.769231H78.769231zM0 393.846154h78.769231v78.769231H0zM0 315.076923h78.769231v78.769231H0z" fill="#1E2028" p-id="1821"></path></svg>
