<svg xmlns="http://www.w3.org/2000/svg"  viewBox="0 0 512 512" width="128px" height="128px"><path fill="#32BEA6" d="M7.9,256C7.9,119,119,7.9,256,7.9C393,7.9,504.1,119,504.1,256c0,137-111.1,248.1-248.1,248.1C119,504.1,7.9,393,7.9,256z"/><path fill="#FFF" d="M436.2 180.1c-10.3 0-20.7.1-31 .1-23.3-52.2-69-89.9-126.6-98.9C214.2 71.2 152.7 101 116 153.6c-16.3 23.3 22 45.2 38.2 22 50.3-72 157.8-65.5 201.9 4.7-9.6 0-19.1 0-28.7.1-2.7 0-4.6 1.2-5.7 2.9-1.9 2.1-2.7 5.1-.6 8.2 18.2 28.2 36.4 56.5 54.6 84.7 3.1 4.7 9.7 4.7 12.7 0 18.1-28.3 36.1-56.7 54.2-85C445.5 186.4 441.5 180.1 436.2 180.1zM358.3 335.1c-49.9 71.5-156.1 65.6-200.9-3 9.2 0 18.3 0 27.5-.1 2.7 0 4.6-1.2 5.7-2.9 1.9-2.1 2.7-5.1.6-8.2-18.2-28.2-36.4-56.5-54.6-84.7-3.1-4.8-9.7-4.7-12.7 0-18.1 28.3-36.1 56.7-54.2 85-3 4.7.9 11 6.3 11 10.7 0 21.3-.1 32-.1 23.5 51.3 68.8 88.3 125.9 97.3 64.3 10.1 125.8-19.8 162.5-72.3C412.7 333.8 374.4 312 358.3 335.1z"/></svg>
