<?xml version="1.0" encoding="utf-8"?>

<svg style="zoom: 0.52;" xmlns="http://www.w3.org/2000/svg" xmlns:xlink="http://www.w3.org/1999/xlink" data-v-2cb57da0="" version="1.0" preserveAspectRatio="xMidYMid meet" color-interpolation-filters="sRGB">
  <g data-v-2cb57da0="" fill="#333" class="icon-text-wrapper icon-svg-group iconsvg">
    <g class="iconsvg-imagesvg" transform="matrix(1,0,0,1,0,0)" opacity="1">
      <g>
        <rect fill="#333" fill-opacity="0" stroke-width="2" x="0" y="0" width="60" height="63.213789034514726" class="image-rect"/>  
        <svg x="0" y="0" width="60" height="63.213789034514726" filtersec="colorsb8875597363" class="image-svg-svg primary" style="overflow: visible;">
          <svg viewBox="0.006116670090705156 0.006116670090705156 94.90999603271484 99.99388885498047">
            <defs>
              <linearGradient id="a7e7d890f-267e-4348-886f-350f594f2f58" x1="34.93" y1="68.73" x2="94.92" y2="68.73" gradientUnits="userSpaceOnUse">
                <stop offset="0" stop-color="#1eedc4"/>
                <stop offset="1" stop-color="#1e9eed"/>
              </linearGradient>
              <linearGradient id="b121486f6-a521-4e2f-a3d9-5c8b534b652c" x1="16.82" y1="45.25" x2="48.77" y2="87.85" gradientUnits="userSpaceOnUse">
                <stop offset="0" stop-color="#1e9eed"/>
                <stop offset="1" stop-color="#090380"/>
              </linearGradient>
              <linearGradient id="c756f81bd-29d5-43c6-aa8f-f84e21dfecfc" x1="50.23" y1="22.05" x2="102.44" y2="79.48" gradientUnits="userSpaceOnUse">
                <stop offset="0" stop-color="#1e9eed"/>
                <stop offset="1" stop-color="#090380"/>
              </linearGradient>
              <linearGradient id="df3ba3f6f-c034-4b05-9a0f-7c63ac093bf8" x1="38.39" y1="22.98" x2="18.96" y2="53.89" gradientUnits="userSpaceOnUse">
                <stop offset="0" stop-color="#1eedc4"/>
                <stop offset="1" stop-color="#1e9eed"/>
              </linearGradient>
            </defs>
            <g>
              <g>
                <path d="M47.46 100a12.53 12.53 0 0 1-12.53-12.53c0-13 5.39-25.52 15.17-35.34 9.28-9.32 21.05-14.66 32.28-14.66a12.53 12.53 0 1 1 0 25.06C73.54 62.53 60 73.7 60 87.47A12.53 12.53 0 0 1 47.46 100z" opacity=".8" fill="url(#a7e7d890f-267e-4348-886f-350f594f2f58)"/>
                <path d="M47.46 100a12.53 12.53 0 0 1-12.53-12.53c0-13.77-13.56-24.94-22.4-24.94a12.53 12.53 0 0 1 0-25.06c11.24 0 23 5.34 32.28 14.66C54.6 62 60 74.5 60 87.47A12.53 12.53 0 0 1 47.46 100z" opacity=".8" fill="url(#b121486f6-a521-4e2f-a3d9-5c8b534b652c)"/>
                <path d="M82.38 62.53c-11.23 0-23-5.34-32.28-14.66-9.78-9.82-15.17-22.37-15.17-35.34a12.53 12.53 0 0 1 25.06 0C60 26.3 73.54 37.47 82.38 37.47a12.53 12.53 0 1 1 0 25.06z" opacity=".8" fill="url(#c756f81bd-29d5-43c6-aa8f-f84e21dfecfc)"/>
                <path d="M12.53 62.53a12.53 12.53 0 0 1 0-25.06c8.84 0 22.4-11.17 22.4-24.94a12.53 12.53 0 0 1 25.06 0c0 13-5.39 25.52-15.18 35.34-9.27 9.32-21.04 14.66-32.28 14.66z" opacity=".8" fill="url(#df3ba3f6f-c034-4b05-9a0f-7c63ac093bf8)"/>
              </g>
            </g>
          </svg>
        </svg> 
      </g>
    </g>  
  </g>
  <defs v-gra="od"/>
</svg>
